name kv04_filtered_grf.mot
datacolumns 37
datarows 5
range 0.399500 0.401500
endheader
time	1_ground_force_vx	1_ground_force_vy	1_ground_force_vz	1_ground_force_px	1_ground_force_py	1_ground_force_pz	1_ground_torque_x	1_ground_torque_y	1_ground_torque_z	2_ground_force_vx	2_ground_force_vy	2_ground_force_vz	2_ground_force_px	2_ground_force_py	2_ground_force_pz	2_ground_torque_x	2_ground_torque_y	2_ground_torque_z	3_ground_force_vx	3_ground_force_vy	3_ground_force_vz	3_ground_force_px	3_ground_force_py	3_ground_force_pz	3_ground_torque_x	3_ground_torque_y	3_ground_torque_z	4_ground_force_vx	4_ground_force_vy	4_ground_force_vz	4_ground_force_px	4_ground_force_py	4_ground_force_pz	4_ground_torque_x	4_ground_torque_y	4_ground_torque_z
            0.399500	           -0.013381	            0.022211	           -0.063123	            0.450000	            0.000000	            0.900000	            0.005328	           -0.001846	            0.001283	            0.000000	           -0.000000	           -0.000000	           -0.226824	            0.000000	            0.174299	           -0.000000	            0.000000	           -0.000000	          -29.458557	          317.173772	           92.634660	            0.386901	            0.966979	            1.074890	            0.105889	           -1.140080	           -0.332975	           -9.999698	          309.989367	           72.385009	           -0.368806	            0.966125	            1.107860	           -0.052541	            1.628768	            0.380330
            0.400000	           -0.012702	            0.021208	           -0.058571	            0.450000	            0.000000	            0.900000	            0.004572	           -0.002362	            0.001099	            0.000000	           -0.000000	           -0.000000	           -0.226824	            0.000000	            0.174299	           -0.000000	            0.000000	           -0.000000	          -29.299446	          317.646305	           92.569222	            0.386906	            0.966974	            1.074897	            0.103893	           -1.126341	           -0.328241	           -9.996233	          310.196176	           72.585095	           -0.368808	            0.966107	            1.107864	           -0.052796	            1.638324	            0.383364
            0.400500	           -0.011996	            0.020155	           -0.053975	            0.450000	            0.000000	            0.900000	            0.003833	           -0.002841	            0.000920	            0.000000	           -0.000000	           -0.000000	           -0.226824	            0.000000	            0.174299	           -0.000000	            0.000000	           -0.000000	          -29.130846	          318.106669	           92.498712	            0.386909	            0.966969	            1.074903	            0.101849	           -1.112183	           -0.323399	           -9.985821	          310.397682	           72.779613	           -0.368812	            0.966090	            1.107867	           -0.053011	            1.647799	            0.386363
            0.401000	           -0.011269	            0.019060	           -0.049358	            0.450000	            0.000000	            0.900000	            0.003115	           -0.003281	            0.000745	            0.000000	           -0.000000	           -0.000000	           -0.226824	            0.000000	            0.174299	           -0.000000	            0.000000	           -0.000000	          -28.953162	          318.555249	           92.422511	            0.386912	            0.966965	            1.074909	            0.099762	           -1.097620	           -0.318453	           -9.968799	          310.594084	           72.969793	           -0.368816	            0.966074	            1.107870	           -0.053189	            1.657189	            0.389334
            0.401500	           -0.010526	            0.017929	           -0.044744	            0.450000	            0.000000	            0.900000	            0.002419	           -0.003683	            0.000577	           -0.000000	           -0.000000	           -0.000000	           -0.226824	            0.000000	            0.174299	           -0.000000	            0.000000	           -0.000000	          -28.766290	          318.992242	           92.340841	            0.386916	            0.966960	            1.074915	            0.097633	           -1.082663	           -0.313406	           -9.945311	          310.785875	           73.155578	           -0.368820	            0.966058	            1.107874	           -0.053329	            1.666492	            0.392274
